# xmcd
#
# Track frame offsets:
#	150
#	28370
#	80799
#	123581
#	155854
#
# Disc length: 3265 seconds
#
# Revision: 1
# Processed by: cddbd v1.5.2PL0 Copyright (c) Steve Scherf et al.
# Submitted via: audiograbber 1.83.01
#
DISCID=460cbf05
DTITLE=Micky and The Hartbeats - 68-10-30 The Matrix, San Francisco CA
DYEAR=1900
DGENRE=
TTITLE0=Blues Jam
TTITLE1=Baby Please Come Back To Me
TTITLE2=Jam
TTITLE3=Talking and tuning
TTITLE4=Dark Star Jam
EXTD=
EXTT0=
EXTT1=
EXTT2=
EXTT3=
EXTT4=
PLAYORDER=
